PathFileType	4	(X/Y/Z)	S00_P00_T01_BalancingTrial_0-100.trc
DataRate	CameraRate	NumFrames	NumMarkers	Units	OrigDataRate	OrigDataStartFrame	OrigNumFrames
60	60	9	21	m	60	50	100
Frame#	Time	RHip			RKnee			RAnkle			RBigToe			RSmallToe			RHeel			LHip			LKnee			LAnkle			LBigToe			LSmallToe			LHeel			Neck			Head			Nose			RShoulder			RElbow			RWrist			LShoulder			LElbow			LWrist		
		X1	Y1	Z1	X2	Y2	Z2	X3	Y3	Z3	X4	Y4	Z4	X5	Y5	Z5	X6	Y6	Z6	X7	Y7	Z7	X8	Y8	Z8	X9	Y9	Z9	X10	Y10	Z10	X11	Y11	Z11	X12	Y12	Z12	X13	Y13	Z13	X14	Y14	Z14	X15	Y15	Z15	X16	Y16	Z16	X17	Y17	Z17	X18	Y18	Z18	X19	Y19	Z19	X20	Y20	Z20	X21	Y21	Z21
51	0.85	-0.2269102412577108	1.0012479521387838	-1.0180764298844704	-0.5222743991781856	0.7537095261105731	-0.8521287684056345	-0.7913324548032854	0.4502272761288636	-0.895528704360713	-0.8248640878800787	0.40961513016110906	-0.7245823797268088	-0.8488473275700735	0.410331361972965	-0.7775863870498123	-0.8094796210448635	0.43536631203110326	-0.9378780668667105	-0.06356923418872004	0.882437943993466	-1.0853716252555792	-0.07707950710811838	0.5165178220887644	-0.9048265672304715	-0.015642270026297797	0.1448460212164786	-1.1499185482656336	-0.006397884522075036	0.0802062632717945	-1.0000225193360819	0.023828885599575446	0.08230070927130421	-1.0309124135162595	-0.009287060322749327	0.11780818633091134	-1.1984674568477538	0.24684375164639075	1.3167060140192848	-0.9391822817027821	0.4338516726191519	1.4813712362057578	-0.8096393937926928	0.3318597797475635	1.3485543279106362	-0.8005969013010451	0.0968278845694466	1.4115398524145666	-0.9627476633883245	-0.16369741225166376	1.506046560435246	-0.9755456627427358	-0.07810606374837863	1.649385399959068	-0.8024724525581565	0.31612612440044896	1.1836643035503545	-1.0489964465992625	0.38467902729579334	0.8818931985456827	-1.0775166590904417	0.4168505662628081	0.640295132807282	-0.995370819800545
52	0.8666666666666667	-0.22543695874243516	1.0027437452072696	-1.0051335600579667	-0.516586051629375	0.7522194017284537	-0.8447132037839955	-0.7790563250635035	0.444692188984189	-0.8840916507231412	-0.8099800895143418	0.39648730422459877	-0.7283957689449203	-0.8341704978327551	0.40224775992039674	-0.765470975211647	-0.7958635916043462	0.4281137782233746	-0.9267500405703204	-0.062358488826697325	0.8850268708728435	-1.078844271653754	-0.07588246344050237	0.5176550784510955	-0.9073295904463132	-0.014385476439855245	0.14569271901261996	-1.1484153048214096	-0.006805320215630146	0.08089608184971739	-0.9989154628160217	0.02410224349805862	0.08362107304812114	-1.0291584043514566	-0.00795353695244438	0.1172441408816536	-1.1970875888127062	0.24506285200486572	1.3174619545023485	-0.936379126041949	0.43215424276966374	1.4820689894197776	-0.8030927608506899	0.3301627466298676	1.3474258347125028	-0.7947594301074817	0.09607292020620078	1.414743412637767	-0.9503684793827407	-0.16531511353040781	1.5073403697597112	-0.9611351713560826	-0.07154380823523687	1.6451238192364415	-0.7882639519719306	0.31716397374679084	1.1853819214125854	-1.0398513228833455	0.38492792114043073	0.8841208230836348	-1.0740818572957083	0.41962960671829536	0.6423828291488999	-0.9910599014208317
53	0.8833333333333333	-0.22481684875990815	1.00366555111398	-0.9965022041626299	-0.5099700407863191	0.7492278250493806	-0.8376462499498238	-0.7635894830914863	0.43648146661654413	-0.8741348444458802	-0.7902571415699777	0.3810443116673236	-0.7318051121869535	-0.8130222908314492	0.3864192369125824	-0.761076580418019	-0.7791574557150147	0.41672307414569365	-0.9146862562449329	-0.062153052711336344	0.8877501315241427	-1.0751944859098592	-0.0743149947557161	0.5186404199440656	-0.9100676970860834	-0.012901485067201606	0.14633762051573293	-1.147044138649347	-0.007130077251001846	0.08153453662512593	-0.9981109749186201	0.024432748297569248	0.08495411738814321	-1.027737412341383	-0.006256847394798799	0.1166756721223533	-1.1959902078504523	0.24243265220166935	1.3178909119673932	-0.9360342937608291	0.4296065904675923	1.4832557266761959	-0.7964958291183553	0.32792145283888513	1.3467354333916193	-0.7888750786779138	0.09385657328111434	1.4175508382454374	-0.9415659584956737	-0.16731444891275035	1.5080382066067022	-0.9477444882285605	-0.06738324439033826	1.640235490984731	-0.7750752882905253	0.31917219531692387	1.1873377011806703	-1.0283388770516058	0.3852609748071428	0.8873686076822445	-1.0699489793386616	0.42228039604611567	0.6455742626560561	-0.983733665529805
54	0.9	-0.22482865928400433	1.0041632772014049	-0.9911199598397675	-0.501975222442868	0.7445752227979807	-0.8307564969956325	-0.7445550901449692	0.42550868187636126	-0.8657251411696119	-0.7644632512989893	0.36407018200780034	-0.7317716272667565	-0.7873591559886074	0.3666419526721313	-0.7604351684394047	-0.7598760376637143	0.4014600291593529	-0.9030938162812479	-0.06367235873164219	0.8908091201110663	-1.075846265225311	-0.07281075875307991	0.5195250292166373	-0.9127558052826041	-0.01177424237936154	0.14669866915510246	-1.1462592878870792	-0.007171567824214322	0.08212400529133464	-0.9975780206183766	0.024725194404727834	0.08606877919860355	-1.0271000954862848	-0.004516534897251997	0.11610007239631687	-1.1955796870440227	0.23885948610249222	1.3176157404073365	-0.937779264986278	0.42628202440969154	1.4842884133420897	-0.789825334675646	0.3248247291906148	1.3463491028502002	-0.7821720687697749	0.09059723346533242	1.4200754259899238	-0.9348315906076391	-0.16973819425974604	1.508219846541083	-0.9351521186002736	-0.06530626510161518	1.6350744311665861	-0.763055587394241	0.32108392126461144	1.1895551276346774	-1.0177803653631403	0.38552027436938274	0.8916332953915544	-1.064986736616546	0.42486206851574443	0.6501166903092546	-0.9735702731406198
55	0.9166666666666666	-0.22511780558825903	1.0044807436167962	-0.9877841126272686	-0.49206766084587444	0.7382420696763765	-0.8242652742680691	-0.7215357498880107	0.41191714620260267	-0.8583554666409967	-0.7326749966259667	0.3469364926685902	-0.7257582396751581	-0.7592513365349494	0.3471753699113819	-0.7580920345576748	-0.7376178663892697	0.3832825496830981	-0.8935008290557992	-0.06621925891784607	0.894170889539236	-1.0793759133764023	-0.07158701382200353	0.5203990193662911	-0.9151355815760849	-0.011349288830981602	0.14667619010097446	-1.1463883389776561	-0.0069227651547754485	0.0825755607825758	-0.9972623699962233	0.024874304608166746	0.08673128300344998	-1.0273660757979883	-0.003119611950968865	0.11545399100709643	-1.1961732683085515	0.2344367887207306	1.316557469121701	-0.940073269827804	0.421998360093946	1.4847343542937264	-0.7833480381736765	0.32049799711074406	1.346271742597134	-0.7739604665507487	0.08688183193786791	1.4223069918638631	-0.9283199729356003	-0.17250937857502924	1.5079539415522911	-0.9231653807590977	-0.06470767792724237	1.6297713834573786	-0.7521776278055724	0.322190210396235	1.192229042469456	-1.0099185322510191	0.38572012977818887	0.8967994230142725	-1.0592364704478603	0.4274428364532683	0.6560648991361481	-0.9615287779554639
56	0.9333333333333332	-0.22537078599600452	1.0048128306037378	-0.9854570812771692	-0.47983957467647276	0.7303482635386218	-0.8187936134831045	-0.6944426602837965	0.3960956206257558	-0.8514046179758554	-0.6964384159819287	0.3304168337915638	-0.7138667581994014	-0.729515954750404	0.3298080728131141	-0.7509480210621302	-0.7114375365221106	0.36347757061315705	-0.8859723558194517	-0.06857269693602253	0.8976272928452853	-1.083099309183026	-0.07063640059647584	0.5212872882421875	-0.9171435444037314	-0.011670122395497884	0.14622799448306728	-1.1475453230258903	-0.006539256131829338	0.08276546720445915	-0.9971240580540529	0.0248065870096399	0.0867996697293798	-1.0283030339629142	-0.0024211442196916634	0.11471673617181505	-1.1977840301117855	0.22956728692303424	1.3151826924882977	-0.9404744731271224	0.41619908504238595	1.4845569369954765	-0.7768866745493958	0.314671302823407	1.3466225347670073	-0.7639755621749872	0.08314156037232749	1.424126011672105	-0.9209905994097063	-0.17537957354289047	1.507260357605215	-0.9117396467145268	-0.06510147801636602	1.6242323218284045	-0.7421326073891569	0.3223754208493596	1.1954626604333687	-1.0044151969039012	0.38609954441150646	0.9026885946646875	-1.0528256811828876	0.4300617083127882	0.6632204571519755	-0.9489122354941086
57	0.95	-0.22547403928369975	1.0052238010551968	-0.9833309159846032	-0.46529873244684344	0.7211677304454853	-0.8149368059416047	-0.6634645336914677	0.3784802272646375	-0.84419302747837	-0.6576519822622198	0.3140619327638083	-0.6982073478766555	-0.6979759344903302	0.3140552352099718	-0.7387462072206908	-0.6806702096783157	0.3432336450470812	-0.8790266489174534	-0.07003572054896104	0.9009479967150925	-1.0853940495244268	-0.06990896962880161	0.5221780156836234	-0.9188084799475954	-0.012558693571859895	0.14544354205611376	-1.1495316398588775	-0.006230416651710559	0.08260918776821896	-0.9970940776380707	0.024490541260316606	0.08619110051802906	-1.0295634047997753	-0.0025673350389066652	0.11380331091203764	-1.199973555499804	0.22461117709317452	1.3142144396425715	-0.9370261101139491	0.40834571542655934	1.4841337456885355	-0.769445559939879	0.3072230718354877	1.3474267917764702	-0.7522951160455272	0.07957788064631074	1.4257371805242824	-0.9124472397978732	-0.17809397816906597	1.506093572734745	-0.9010239584932618	-0.06638876196953965	1.6184286206777212	-0.7322956282431142	0.32175550857929003	1.1990166495592225	-1.0002769133856544	0.3869025895638939	0.9091023821373366	-1.0456768660629312	0.43257207433658135	0.6711288673132221	-0.9371887344685661
58	0.9666666666666668	-0.22550582264446373	1.0056473933657217	-0.9809047401728304	-0.4489688555409289	0.7109964825182025	-0.8127881112619203	-0.6287881448817636	0.3595518575175857	-0.8361025710270383	-0.6173174725747539	0.29696138188029	-0.6812035413279378	-0.6638802107240993	0.29851384982040324	-0.7232003376265779	-0.6452533171753814	0.3233779703855613	-0.8710219511146237	-0.07040396184173423	0.9039482910907307	-1.0860459902643074	-0.06940590330804648	0.5231378402212549	-0.9201239529108237	-0.013736835715186399	0.14449967108672138	-1.1518028169438608	-0.0062257374028282415	0.08208504559859839	-0.9969908701125436	0.023887322049404212	0.08490407046651434	-1.0308938624588735	-0.0034711160410541625	0.11249283505888369	-1.2020024584343854	0.2194443162266709	1.3140849534057732	-0.929646406158386	0.3987335031177958	1.4840970707211805	-0.7591531616845487	0.29820353616708883	1.3486633966659256	-0.7390613939978583	0.07625830712078689	1.4278083065581748	-0.9023258569376527	-0.18070580971927724	1.5042531866345346	-0.8913440932341499	-0.06877179561396836	1.612582923247503	-0.721784745095177	0.3204578064749611	1.2025446981274672	-0.9966162918073166	0.38804651476764107	0.9159055602026828	-1.037489414994966	0.43455311366198257	0.6790940431888138	-0.928195444950456
59	0.9833333333333332	-0.22556737276825234	1.0059691636916037	-0.9778692956696473	-0.4314266701610492	0.6999801115308313	-0.8116817886131205	-0.5906008317372139	0.3400798506513536	-0.826691689535895	-0.5751945158601229	0.2786621135457806	-0.6650081698906647	-0.6263280998130062	0.28187787292458116	-0.7067224023154197	-0.6056186891250246	0.3043995319906244	-0.8610887416007544	-0.06972673594997991	0.9065148721990737	-1.085512994304636	-0.06897605815304128	0.5241883423283701	-0.921112975578927	-0.014899509282077537	0.14353302097016654	-1.1534772114740517	-0.006671330452184734	0.08121796741854319	-0.9965510823694447	0.0229771803246492	0.08310335634691729	-1.0321409005006794	-0.004946515742905043	0.11058057491363009	-1.2032179996378083	0.2137307850970051	1.3148827450163125	-0.9198610673960547	0.3890219068111188	1.4850506598485196	-0.7442297972151765	0.288078057774475	1.3504177038656997	-0.7248085480876224	0.0730842129054726	1.4309209898689916	-0.8907411580349037	-0.18362693585042605	1.501450623580449	-0.8830756922627306	-0.07249516128242764	1.6070279964803211	-0.7096459307471632	0.31869329753142284	1.2059705883961118	-0.9926758221071831	0.3890916493594641	0.9229200609553039	-1.0282749197895917	0.4355331433004993	0.6862977132320051	-0.9234913519493504
